# xmcd
#
# Track frame offsets: 
#        150
#        13901
#        27015
#        40288
#        54623
#        68272
#        79530
#        93033
#        106156
#        117309
#        128964
#        140866
#        154207
#        166764
#        181399
#        194016
#        206769
#        220270
#        232687
#        245171
#        256683
#        268822
#        281411
#
# Disc length: 3898 seconds
#
# Revision: 3
# Processed by: cddbd v1.5.2PL0 Copyright (c) Steve Scherf et al.
# Submitted via: ExactAudioCopyFreeDBPlugin 1.0
#
DISCID=420f3817
DTITLE=Blind Lemon Jefferson - The Complete 94 Classic Sides Remastere
DTITLE=d [disc B]
DYEAR=2002
DGENRE=Blues
TTITLE0=Black Snake Moan
TTITLE1=Match Box Blues
TTITLE2=Easy Rider Blues
TTITLE3=Match Box Blues
TTITLE4=Match Box Blues [alternate take]
TTITLE5=Rising High Water Blues
TTITLE6=Weary Dogs Blues
TTITLE7=Right of Way Blues
TTITLE8=Teddy Bear Blues
TTITLE9=Teddy Bear Blues [alternate take]
TTITLE10=Black Snake Dream Blues
TTITLE11=Hot Dogs
TTITLE12=He Arose from the Dead
TTITLE13=Struck Sorrow Blues
TTITLE14=Rambler Blues
TTITLE15=Chinch Bug Blues
TTITLE16=Deceitful Brownskin Blues
TTITLE17=Sunshine Special
TTITLE18=Gone Dead on You Blues
TTITLE19=Where Shall I Be?
TTITLE20=See That My Grave's Kept Clean
TTITLE21=One Dime Blues
TTITLE22=Lonesome House Blues
EXTD=YEAR: 2002
EXTT0=
EXTT1=
EXTT2=
EXTT3=
EXTT4=
EXTT5=
EXTT6=
EXTT7=
EXTT8=
EXTT9=
EXTT10=
EXTT11=
EXTT12=
EXTT13=
EXTT14=
EXTT15=
EXTT16=
EXTT17=
EXTT18=
EXTT19=
EXTT20=
EXTT21=
EXTT22=
PLAYORDER=
